<?xml version="1.0" encoding="UTF-8" standalone="no"?>
<!DOCTYPE svg PUBLIC "-//W3C//DTD SVG 20010904//EN"
              "http://www.w3.org/TR/2001/REC-SVG-20010904/DTD/svg10.dtd">

<svg xmlns="http://www.w3.org/2000/svg"
     viewBox="0 0 372 156">
  <path id="Selection"
        fill="#64a5d1" stroke="black" stroke-width="0"
        d="M 93.00,20.00
           C 90.41,19.41 90.17,18.18 89.31,16.06
             88.25,13.42 88.38,5.04 91.28,3.47
             93.84,2.09 95.58,5.97 95.94,7.88
             96.87,12.81 95.31,19.69 93.00,20.00 Z
           M 68.41,12.25
           C 70.76,11.28 76.90,16.91 78.91,20.25
             80.08,22.21 80.44,26.00 77.16,26.00
             74.05,26.00 62.12,16.05 68.41,12.25 Z
           M 113.98,13.66
           C 124.21,12.93 112.88,24.33 109.11,25.27
             106.30,25.96 105.22,23.59 106.28,20.98
             107.66,17.59 110.86,15.23 113.98,13.66 Z
           M 97.12,52.09
           C 96.92,54.05 97.14,55.70 97.00,58.00
             97.00,58.00 151.00,58.00 151.00,58.00
             156.95,58.08 163.29,59.62 167.36,64.33
             171.52,69.14 171.99,74.99 172.00,81.00
             172.00,81.00 172.00,128.00 172.00,128.00
             171.97,146.41 163.48,151.97 146.00,152.00
             146.00,152.00 39.00,152.00 39.00,152.00
             31.36,151.99 22.85,151.22 17.64,144.82
             13.52,139.76 13.01,134.20 13.00,128.00
             13.00,128.00 13.00,82.00 13.00,82.00
             13.01,77.94 12.95,74.96 14.22,71.00
             18.75,56.87 31.06,58.00 43.00,58.00
             43.00,58.00 61.00,58.00 61.00,58.00
             61.00,58.00 78.00,58.00 78.00,58.00
             80.30,58.00 84.59,58.00 86.88,58.06
             86.97,60.16 86.99,65.01 87.00,67.00
             87.00,67.00 36.00,67.00 36.00,67.00
             26.09,67.14 22.14,71.09 22.00,81.00
             22.00,81.00 22.00,126.00 22.00,126.00
             22.02,139.78 26.58,142.98 40.00,143.00
             40.00,143.00 145.00,143.00 145.00,143.00
             151.19,142.99 157.40,142.86 161.15,136.96
             163.70,132.92 163.00,124.83 163.00,120.00
             163.00,120.00 163.00,83.00 163.00,83.00
             162.98,72.31 160.70,67.07 149.00,67.00
             149.00,67.00 88.00,67.00 88.00,67.00
             88.00,63.61 87.97,55.31 87.80,52.19
             85.80,46.92 79.36,45.38 80.52,38.00
             82.61,24.62 99.62,23.60 103.73,35.00
             106.79,43.47 99.68,49.47 97.12,52.09 Z
           M 74.00,38.00
           C 74.06,43.47 57.25,43.53 56.00,39.00
             54.31,34.12 73.44,34.69 74.00,38.00 Z
           M 129.00,38.00
           C 129.78,43.66 113.34,44.03 111.00,39.00
             109.22,34.22 128.75,34.62 129.00,38.00 Z
           M 197.00,47.00
           C 197.00,47.00 232.00,47.00 232.00,47.00
             245.46,47.17 246.98,52.99 247.00,65.00
             247.01,70.24 247.55,78.71 243.69,82.72
             241.09,85.44 237.51,85.85 234.00,86.41
             234.00,86.41 207.00,87.00 207.00,87.00
             204.50,87.00 199.78,87.12 197.16,86.97
             196.94,85.28 197.00,79.94 197.00,78.00
             197.00,78.00 197.00,47.00 197.00,47.00 Z
           M 204.00,53.00
           C 204.00,53.00 204.00,80.96 204.00,80.96
             204.00,80.96 229.00,80.96 229.00,80.96
             231.80,80.71 236.31,80.24 237.98,77.69
             239.51,75.35 239.06,64.30 239.00,61.00
             238.95,58.45 239.07,55.77 236.69,54.17
             234.73,52.87 231.29,53.01 229.00,53.00
             229.00,53.00 204.00,53.00 204.00,53.00 Z
           M 286.00,80.00
           C 286.00,80.00 286.00,63.00 286.00,63.00
             286.02,60.69 285.24,56.30 287.88,55.25
             292.96,53.22 293.62,60.31 293.00,64.00
             293.00,64.00 293.00,84.00 293.00,84.00
             292.74,98.11 278.96,95.00 269.00,95.00
             269.25,92.05 268.55,90.25 269.53,89.50
             271.81,88.50 278.56,89.44 283.94,88.88
             285.19,88.41 285.39,87.45 286.00,86.00
             277.25,86.00 255.71,88.48 251.17,79.96
             249.44,76.70 249.97,67.05 250.00,63.00
             250.02,60.70 249.16,56.27 251.81,55.25
             254.98,54.03 257.88,55.88 257.85,60.02
             258.61,64.72 256.31,75.03 260.31,78.07
             264.10,80.94 280.62,80.00 286.00,80.00 Z
           M 311.00,55.29
           C 317.95,54.64 334.62,53.85 338.91,60.21
             341.64,64.26 341.01,72.16 341.00,77.00
             341.00,79.16 341.49,83.72 340.26,85.48
             338.69,87.85 334.94,88.10 333.61,85.52
             331.00,80.32 336.04,65.04 329.30,62.48
             328.21,62.35 325.15,62.03 324.00,62.16
             319.30,61.92 308.22,61.48 305.52,64.04
             304.83,66.48 305.01,74.88 305.00,78.00
             305.35,83.78 305.01,88.87 299.70,87.00
             296.28,85.80 297.02,80.91 297.00,78.00
             296.96,71.58 295.62,61.11 302.11,57.45
             304.40,56.15 308.35,55.69 311.00,55.29 Z
           M 58.00,91.42
           C 78.23,88.66 79.60,119.81 59.00,117.89
             45.54,116.64 41.19,97.32 58.00,91.42 Z
           M 121.00,91.43
           C 125.24,90.79 129.34,90.56 132.90,93.43
             141.30,100.21 138.64,114.72 128.00,117.57
             120.44,119.60 112.20,113.63 111.23,106.00
             110.37,99.27 115.07,93.77 121.00,91.43 Z
           M 8.69,93.47
           C 10.84,99.42 9.92,100.70 9.91,106.48
             9.91,108.34 9.99,118.24 5.48,114.73
             2.27,112.23 1.89,98.74 4.49,94.96
             5.53,93.45 6.60,91.58 8.69,93.47 Z
           M 179.00,117.00
           C 174.06,117.22 174.89,108.39 175.00,102.00
             175.05,99.48 175.26,93.28 178.91,93.28
             181.51,93.28 182.38,98.03 182.70,100.00
             183.76,106.58 182.09,116.78 179.00,117.00 Z
           M 370.00,99.00
           C 370.00,99.00 370.00,98.68 369.97,99.99
             365.21,100.03 352.00,100.00 352.00,100.00
             352.00,100.00 317.00,100.00 317.00,100.00
             317.00,100.00 196.00,100.00 196.00,100.00
             196.00,100.00 196.02,100.09 196.03,99.01
             201.25,98.96 214.00,99.00 214.00,99.00
             214.00,99.00 249.00,99.00 249.00,99.00
             249.00,99.00 370.00,99.00 370.00,99.00 Z
           M 197.00,151.00
           C 197.00,151.00 197.00,120.00 197.00,120.00
             197.00,117.70 196.88,112.72 197.19,111.00
             199.94,111.09 204.74,111.00 207.00,111.00
             214.96,110.99 235.81,110.01 241.94,114.01
             244.78,115.85 245.67,117.80 246.37,121.00
             247.95,128.24 248.53,145.58 240.96,149.43
             236.94,151.47 230.51,151.00 226.00,151.00
             226.00,151.00 197.00,151.00 197.00,151.00 Z
           M 295.00,145.00
           C 295.00,145.00 295.00,151.00 295.00,151.00
             295.00,151.00 264.00,151.00 264.00,151.00
             260.32,150.95 255.88,151.49 252.88,149.06
             249.46,146.30 250.02,141.97 250.00,138.00
             249.97,131.92 247.92,118.06 252.75,114.00
             256.62,110.75 267.00,111.01 272.00,111.05
             272.00,111.05 294.98,111.04 294.98,111.04
             294.78,113.78 295.20,114.82 294.82,117.91
             293.38,118.11 290.14,117.96 288.00,118.00
             288.00,118.00 270.00,118.00 270.00,118.00
             266.62,118.01 262.26,117.74 259.57,119.70
             258.00,123.30 258.09,140.43 259.70,143.65
             262.10,145.56 266.09,144.96 269.00,145.00
             269.00,145.00 295.00,145.00 295.00,145.00 Z
           M 331.59,142.97
           C 331.59,142.97 347.59,124.00 347.59,124.00
             351.88,118.84 355.16,114.58 358.11,112.04
             360.40,112.07 362.93,112.04 365.87,112.00
             366.13,121.07 366.06,142.53 365.89,151.76
             356.24,151.96 364.67,151.71 357.98,151.89
             357.96,147.73 358.01,146.10 358.00,143.00
             358.00,143.00 358.00,124.00 358.00,124.00
             358.00,124.00 340.75,145.00 340.75,145.00
             338.31,147.90 335.36,151.92 331.03,151.24
             328.11,150.11 324.41,146.51 322.27,144.00
             322.27,144.00 306.00,125.00 306.00,125.00
             306.00,125.00 306.00,144.00 306.00,144.00
             305.97,147.28 306.22,146.25 306.05,150.97
             300.59,151.14 306.74,150.84 297.88,151.02
             298.02,141.72 297.78,120.75 298.34,111.84
             301.71,111.89 303.72,111.88 305.91,111.97
             310.12,114.18 312.85,119.91 317.08,125.00
             321.59,130.42 327.66,137.12 331.59,142.97 Z
           M 204.00,118.00
           C 204.00,118.00 204.00,145.00 204.00,145.00
             204.00,145.00 229.00,145.00 229.00,145.00
             231.58,144.99 235.42,145.20 237.40,143.26
             239.21,141.49 238.98,138.34 239.00,136.00
             239.02,132.45 239.81,122.09 237.40,119.74
             235.58,117.96 232.37,118.04 230.00,118.00
             230.00,118.00 204.00,118.00 204.00,118.00 Z" />
</svg>
